<mxfile host="app.diagrams.net" modified="2023-04-17T00:41:19.743Z" agent="Mozilla/5.0 (Windows NT 10.0; Win64; x64) AppleWebKit/537.36 (KHTML, like Gecko) Chrome/112.0.0.0 Safari/537.36" version="21.1.8" etag="z2vwNTl-sJDuPGH4iuvB" type="github">
  <diagram name="Page-1" id="1cTLfAdvcrTC_9-ZEcHe">
    <mxGraphModel>
      <root>
        <mxCell id="0" />
        <mxCell id="1" parent="0" />
      </root>
    </mxGraphModel>
  </diagram>
</mxfile>
